<svg xmlns="http://www.w3.org/2000/svg" viewBox="0 0 750 500"><g id="freepik--background-complete--inject-48"><ellipse cx="265.49" cy="459.85" rx="49.63" ry="6.24" style="fill:#f5f5f5"></ellipse><path d="M146.61,470.59c0,3.44-22.22,6.24-49.63,6.24s-49.63-2.8-49.63-6.24,22.22-6.24,49.63-6.24S146.61,467.14,146.61,470.59Z" style="fill:#f5f5f5"></path><ellipse cx="475.09" cy="443.49" rx="33.18" ry="6.24" style="fill:#f5f5f5"></ellipse><path d="M703.44,477.55c0,3.45-26.66,6.24-59.55,6.24s-59.56-2.79-59.56-6.24,26.67-6.24,59.56-6.24S703.44,474.1,703.44,477.55Z" style="fill:#f5f5f5"></path><path d="M318.66,55.4a30,30,0,0,1,7.24-3.15l1.49-7.16,12.09-.21,1.75,7.1a30.06,30.06,0,0,1,7.34,2.89l6.11-4,8.71,8.41-3.79,6.25a29.69,29.69,0,0,1,3.14,7.24l7.16,1.49.21,12.1L363,88.09a29.66,29.66,0,0,1-2.89,7.34l4,6.11-8.4,8.71-6.26-3.79a29.46,29.46,0,0,1-7.23,3.14l-1.49,7.16-12.1.22-1.74-7.11a29.36,29.36,0,0,1-7.34-2.89l-6.12,4-8.7-8.4,3.79-6.25a29.73,29.73,0,0,1-3.15-7.24l-7.16-1.49L298,75.51l7.1-1.74A29.75,29.75,0,0,1,308,66.43l-4-6.12,8.41-8.7,6.25,3.79Zm6.45,16.12a13,13,0,1,0,18.36-.33A13,13,0,0,0,325.11,71.52Z" style="fill:#f5f5f5"></path><path d="M584,77.14A29.73,29.73,0,0,1,591.2,74l1.49-7.16,12.1-.21,1.74,7.1a29.75,29.75,0,0,1,7.34,2.89l6.12-4,8.7,8.41-3.79,6.25a30,30,0,0,1,3.15,7.23L635.21,96l.21,12.1-7.11,1.75a29.63,29.63,0,0,1-2.88,7.34l4,6.11L621,132l-6.25-3.79a29.69,29.69,0,0,1-7.24,3.14l-1.49,7.16-12.1.21-1.74-7.1a30.06,30.06,0,0,1-7.34-2.89l-6.11,4-8.71-8.41,3.79-6.25a29.46,29.46,0,0,1-3.14-7.23l-7.16-1.49-.22-12.1,7.11-1.74a29,29,0,0,1,2.89-7.34l-4-6.12,8.4-8.7L584,77.14Zm6.45,16.11a13,13,0,1,0,18.36-.32A13,13,0,0,0,590.41,93.25Z" style="fill:#f5f5f5"></path><path d="M123.26,189.12a29.12,29.12,0,0,1,7.23-3.15l1.49-7.16,12.1-.21,1.74,7.1a29.75,29.75,0,0,1,7.34,2.89l6.12-4L168,193l-3.79,6.25a29.66,29.66,0,0,1,3.15,7.23L174.5,208l.21,12.1-7.1,1.74a30,30,0,0,1-2.89,7.35l4,6.11L160.32,244l-6.25-3.79a29.53,29.53,0,0,1-7.24,3.14l-1.49,7.16-12.09.21-1.75-7.1a30.06,30.06,0,0,1-7.34-2.89l-6.11,4-8.71-8.41,3.79-6.25a29.63,29.63,0,0,1-3.14-7.23l-7.16-1.49-.21-12.1,7.1-1.74a29.36,29.36,0,0,1,2.89-7.34l-4-6.12,8.4-8.71,6.26,3.8Zm6.45,16.11a13,13,0,1,0,18.35-.32A13,13,0,0,0,129.71,205.23Z" style="fill:#f5f5f5"></path><path d="M270.72,33.5a13.1,13.1,0,0,1,3.22-1.4l.67-3.19,5.39-.1.78,3.17a13.26,13.26,0,0,1,3.27,1.29l2.72-1.79,3.88,3.75L289,38a13.56,13.56,0,0,1,1.4,3.23l3.19.66.09,5.4-3.16.77a13.26,13.26,0,0,1-1.29,3.27L291,54.07,287.24,58l-2.79-1.69a12.74,12.74,0,0,1-3.22,1.4l-.67,3.2-5.39.09-.78-3.17a12.85,12.85,0,0,1-3.27-1.28l-2.73,1.78-3.88-3.74,1.69-2.79a13.56,13.56,0,0,1-1.4-3.23l-3.19-.66-.1-5.39,3.17-.78A13.26,13.26,0,0,1,266,38.42l-1.79-2.73,3.75-3.88,2.79,1.69Zm2.87,7.19a5.79,5.79,0,1,0,8.18-.15A5.78,5.78,0,0,0,273.59,40.69Z" style="fill:#f5f5f5"></path><path d="M34.38,328a13.49,13.49,0,0,1,3.22-1.4l.67-3.19,5.39-.1.78,3.17a13.26,13.26,0,0,1,3.27,1.29L50.44,326l3.88,3.75-1.69,2.78a13.56,13.56,0,0,1,1.4,3.23l3.19.66.1,5.4-3.17.77a13.32,13.32,0,0,1-1.29,3.28l1.79,2.72-3.75,3.88-2.79-1.69a13.14,13.14,0,0,1-3.22,1.41l-.67,3.19-5.39.09-.77-3.16A13.17,13.17,0,0,1,34.78,351l-2.72,1.78L28.18,349l1.69-2.79A13.14,13.14,0,0,1,28.46,343l-3.19-.67L25.18,337l3.16-.78a13.26,13.26,0,0,1,1.29-3.27l-1.79-2.73,3.75-3.88L34.38,328Zm2.87,7.19a5.79,5.79,0,1,0,8.19-.15A5.78,5.78,0,0,0,37.25,335.17Z" style="fill:#f5f5f5"></path><path d="M382.9,45.75a17.57,17.57,0,0,1,4.23-1.84l.88-4.19,7.07-.12,1,4.15a17.56,17.56,0,0,1,4.3,1.69L404,43.1,409.07,48l-2.22,3.65a17.57,17.57,0,0,1,1.84,4.23l4.19.88.12,7.07-4.15,1a17.56,17.56,0,0,1-1.69,4.3l2.34,3.57-4.91,5.1-3.66-2.22a17.4,17.4,0,0,1-4.23,1.84l-.88,4.19-7.07.12-1-4.15a17.56,17.56,0,0,1-4.3-1.69l-3.57,2.34-5.1-4.92L377,69.7a17.57,17.57,0,0,1-1.84-4.23L371,64.59l-.12-7.07,4.15-1a17.56,17.56,0,0,1,1.69-4.3l-2.34-3.57,4.92-5.1,3.65,2.22Zm3.78,9.43A7.59,7.59,0,1,0,397.41,55,7.6,7.6,0,0,0,386.68,55.18Z" style="fill:#f5f5f5"></path><path d="M638.94,44.23a17.4,17.4,0,0,1,4.23-1.84L644,38.2l7.08-.12,1,4.15a17.72,17.72,0,0,1,4.3,1.69L660,41.58l5.1,4.92-2.22,3.65a17.47,17.47,0,0,1,1.84,4.24l4.19.87.12,7.08-4.15,1a17.56,17.56,0,0,1-1.69,4.3l2.34,3.58-4.92,5.09L657,74.1a17.47,17.47,0,0,1-4.24,1.84l-.87,4.19-7.08.12-1-4.15a17.56,17.56,0,0,1-4.3-1.69l-3.58,2.34-5.09-4.91L633,68.18A17.4,17.4,0,0,1,631.18,64L627,63.07,626.87,56,631,55a17.56,17.56,0,0,1,1.69-4.3l-2.34-3.57,4.91-5.1,3.66,2.22Zm3.77,9.43a7.6,7.6,0,1,0,10.74-.19A7.61,7.61,0,0,0,642.71,53.66Z" style="fill:#f5f5f5"></path><path d="M130.65,98.35H98.53a4,4,0,0,1-4-4V49.87a4,4,0,0,1,4-4H118.9L134.67,62.1V94.33A4,4,0,0,1,130.65,98.35Z" style="fill:#ebebeb"></path><path d="M94.51,82.42h40.17a0,0,0,0,1,0,0V92.63A5.72,5.72,0,0,1,129,98.35H100.23a5.72,5.72,0,0,1-5.72-5.72V82.42A0,0,0,0,1,94.51,82.42Z" style="fill:#e0e0e0"></path><path d="M108.74,92.7l1-1.22a1.8,1.8,0,0,0,1.46.87c.73,0,1.12-.44,1.12-1.3V87.31h-2.77V85.85h4.57v5.09c0,2-1,2.9-2.83,2.9A3.18,3.18,0,0,1,108.74,92.7Z" style="fill:#fafafa"></path><path d="M115.22,93.15l.58-1.26a4.12,4.12,0,0,0,2.1.58c.81,0,1.12-.21,1.12-.55,0-1-3.65,0-3.65-2.39,0-1.15,1-2,2.79-2a5.1,5.1,0,0,1,2.33.52l-.59,1.25a3.42,3.42,0,0,0-1.74-.45c-.78,0-1.12.25-1.12.56,0,1,3.65,0,3.65,2.42,0,1.12-1,1.92-2.85,1.92A5.18,5.18,0,0,1,115.22,93.15Z" style="fill:#fafafa"></path><path d="M103,74.06l1.26-1.48a3.79,3.79,0,0,0,3.17,1.8c1.71,0,2.6-1,2.6-3.08V62.77h-5.49V60.88h7.64V71.19c0,3.39-1.65,5.06-4.75,5.06A5.31,5.31,0,0,1,103,74.06Z" style="fill:#fafafa"></path><path d="M114.88,74.86l.86-1.65a7.39,7.39,0,0,0,4,1.2c1.94,0,2.74-.59,2.74-1.57,0-2.58-7.27-.35-7.27-4.93,0-2.06,1.84-3.45,4.79-3.45a8.36,8.36,0,0,1,4.19,1l-.89,1.65a6,6,0,0,0-3.32-.91c-1.82,0-2.71.67-2.71,1.59,0,2.71,7.29.5,7.29,5,0,2.08-1.91,3.41-5,3.41A8.28,8.28,0,0,1,114.88,74.86Z" style="fill:#fafafa"></path><g style="opacity:0.30000000000000004"><path d="M118.9,45.85V58.36a3.74,3.74,0,0,0,3.74,3.74h12Z" style="fill:#fff"></path></g><path d="M119.07,59.46a4.15,4.15,0,0,0,3.29,4,2.88,2.88,0,0,0,.4.09c1.57.28,11.91,2.12,11.91,1.88V62.1h-12S119.64,62,119.07,59.46Z" style="fill:#e0e0e0"></path><path d="M647.46,320.82H615.34a4,4,0,0,1-4-4V272.34a4,4,0,0,1,4-4h20.37l15.77,16.25V316.8A4,4,0,0,1,647.46,320.82Z" style="fill:#ebebeb"></path><path d="M611.32,304.89h40.17a0,0,0,0,1,0,0V315.1a5.72,5.72,0,0,1-5.72,5.72H617a5.72,5.72,0,0,1-5.72-5.72V304.89A0,0,0,0,1,611.32,304.89Z" style="fill:#e0e0e0"></path><path d="M625.55,315.17l1-1.21a1.81,1.81,0,0,0,1.46.86c.73,0,1.11-.44,1.11-1.3v-3.74h-2.76v-1.46h4.57v5.1c0,1.94-1,2.89-2.83,2.89A3.16,3.16,0,0,1,625.55,315.17Z" style="fill:#fafafa"></path><path d="M632,315.62l.58-1.26a4.12,4.12,0,0,0,2.1.58c.81,0,1.11-.21,1.11-.55,0-1-3.65,0-3.65-2.39,0-1.14,1-1.95,2.8-1.95a5,5,0,0,1,2.33.53l-.59,1.24a3.53,3.53,0,0,0-1.74-.45c-.79,0-1.12.25-1.12.57,0,1,3.65,0,3.65,2.41,0,1.12-1,1.92-2.85,1.92A5.18,5.18,0,0,1,632,315.62Z" style="fill:#fafafa"></path><path d="M619.83,296.53l1.26-1.48a3.78,3.78,0,0,0,3.17,1.81c1.71,0,2.6-1.05,2.6-3.09v-8.53h-5.49v-1.89H629v10.31c0,3.39-1.65,5.06-4.75,5.06A5.28,5.28,0,0,1,619.83,296.53Z" style="fill:#fafafa"></path><path d="M631.69,297.33l.86-1.65a7.36,7.36,0,0,0,4,1.2c1.93,0,2.74-.59,2.74-1.57,0-2.58-7.28-.34-7.28-4.92,0-2.07,1.85-3.46,4.8-3.46A8.28,8.28,0,0,1,641,288l-.89,1.65a6,6,0,0,0-3.32-.92c-1.82,0-2.71.68-2.71,1.59,0,2.71,7.29.5,7.29,5,0,2.09-1.91,3.41-5,3.41A8.28,8.28,0,0,1,631.69,297.33Z" style="fill:#fafafa"></path><g style="opacity:0.30000000000000004"><path d="M635.71,268.32v12.51a3.73,3.73,0,0,0,3.74,3.74h12Z" style="fill:#fff"></path></g><path d="M635.88,281.93a4.15,4.15,0,0,0,3.29,4,2.88,2.88,0,0,0,.4.09c1.57.28,11.91,2.12,11.91,1.89v-3.37h-12S636.44,284.47,635.88,281.93Z" style="fill:#e0e0e0"></path></g><g id="freepik--Floor--inject-48"><path d="M716.23,391.36c0,.15-154.13.26-344.21.26s-344.25-.11-344.25-.26,154.09-.26,344.25-.26S716.23,391.22,716.23,391.36Z" style="fill:#263238"></path></g><g id="freepik--Device--inject-48"><path d="M559.39,386.51H173.31A23.11,23.11,0,0,1,150.2,363.4v-265a16.86,16.86,0,0,1,16.85-16.85H566.57A15.93,15.93,0,0,1,582.5,97.5V363.4A23.11,23.11,0,0,1,559.39,386.51Z" style="fill:#e0e0e0"></path><path d="M559.39,386.51s.31,0,.94-.06l1.16-.07c.46,0,1-.14,1.6-.22l1-.15,1.06-.28,1.16-.3,1.22-.45a23.57,23.57,0,0,0,2.69-1.2c.47-.24.92-.55,1.41-.83l.73-.45L573,382a22.82,22.82,0,0,0,9.05-14.69c.06-.43.13-.87.19-1.31s.06-.89.09-1.34c.06-.91.07-1.84.06-2.78V356q0-6.06,0-12.9c0-36.45,0-89.19-.07-154.36q0-24.43,0-51.15V110.36c0-2.31,0-4.63,0-7V99.89c0-1.17,0-2.35,0-3.51a15.78,15.78,0,0,0-6.73-11.81A15.42,15.42,0,0,0,569,82c-.29,0-.58-.1-.88-.13l-.9,0c-.59,0-1.2,0-1.81,0H453.87l-280.33,0h-4.66c-.77,0-1.56,0-2.32,0l-1.14.06-1.14.17a6.19,6.19,0,0,0-1.12.23c-.37.09-.74.18-1.11.29a18.38,18.38,0,0,0-2.12.85,15.72,15.72,0,0,0-3.8,2.5,16.31,16.31,0,0,0-3,3.43,17.93,17.93,0,0,0-1.95,4.1,17.48,17.48,0,0,0-.73,4.48c-.05,1.52,0,3.07,0,4.6v36.59q0,36.32,0,71.52c0,46.9,0,92.13,0,135.22v16.05c0,1.34,0,2.65.14,4l.29,1.94c.13.65.32,1.28.47,1.91a23.2,23.2,0,0,0,3.4,7,22.85,22.85,0,0,0,12.45,8.71c.62.14,1.23.35,1.87.44l1.89.29c1.28.07,2.55.15,3.84.13h67.07l106.6,0,154.35.07,42,0,10.91,0,3.72,0-3.72,0-10.91,0-42,.05-154.35.08-106.6,0-59.39,0h-7.68c-1.28,0-2.58-.05-3.88-.13L169,386.3c-.65-.09-1.27-.31-1.9-.45a23.33,23.33,0,0,1-16.15-16c-.16-.65-.36-1.29-.48-1.94l-.31-2c-.09-1.34-.16-2.68-.14-4V345.87c0-43.09,0-88.32,0-135.22V102.54c0-1.54,0-3.06,0-4.61a16.79,16.79,0,0,1,2.76-8.83,16.69,16.69,0,0,1,3.07-3.53A16.49,16.49,0,0,1,159.73,83a17.13,17.13,0,0,1,2.18-.88c.38-.11.76-.2,1.14-.3a6.51,6.51,0,0,1,1.15-.23c.39-.06.78-.13,1.17-.17l1.18-.06c.79-.06,1.55,0,2.33,0h4.66l280.33,0H565.36c.61,0,1.21,0,1.83,0l.92,0c.3,0,.6.08.9.12a16.06,16.06,0,0,1,13.62,14.79c.09,1.19,0,2.36.06,3.53v10.47q0,13.88,0,27.21,0,26.69,0,51.15c0,65.17-.06,117.91-.08,154.36q0,6.84,0,12.9c0,2,0,4,0,5.86,0,.94,0,1.87-.06,2.78,0,.46,0,.91-.09,1.36s-.14.88-.2,1.31A22.86,22.86,0,0,1,573.08,382l-.71.53-.73.45c-.49.29-.95.6-1.42.83a24.48,24.48,0,0,1-2.7,1.2l-1.23.44-1.17.3-1.06.27-1,.15c-.61.08-1.14.19-1.6.21l-1.16.05Z" style="fill:#263238"></path><path d="M582.05,391.15H154.46a22.34,22.34,0,0,1-22.34-22.34v-3.48a.86.86,0,0,1,.86-.86H599.62a.85.85,0,0,1,.86.86v7.38A18.44,18.44,0,0,1,582.05,391.15Z" style="fill:#e0e0e0"></path><path d="M582.05,391.15l.63,0a13.27,13.27,0,0,0,1.86-.16,18.43,18.43,0,0,0,11.05-5.84,18.56,18.56,0,0,0,3.47-5.48,19,19,0,0,0,1.34-7.44V368c0-.73,0-1.46,0-2.21,0-.38,0-.75-.24-1s-.64-.21-1-.21L495,364.64l-343.57.07H133a.64.64,0,0,0-.28.05.61.61,0,0,0-.36.41,5.13,5.13,0,0,0,0,.71v1.56c0,1,0,2.07.09,3.09a21.14,21.14,0,0,0,1.31,6,20,20,0,0,0,2.89,5.36,22.2,22.2,0,0,0,9.45,7.4,23.31,23.31,0,0,0,5.85,1.5c2,.19,4,.15,6.06.15h36l91.22,0,154.46.05,104.13.08,28.31,0,7.37,0,2.51,0s-.85,0-2.51,0l-7.37,0-28.31,0-104.13.08-154.46.05H158c-2,0-4.06,0-6.12-.16a23.41,23.41,0,0,1-6-1.53,22.65,22.65,0,0,1-9.65-7.56,24.88,24.88,0,0,1-1.69-2.62,25.14,25.14,0,0,1-1.27-2.86,21.91,21.91,0,0,1-1.34-6.1c-.06-1-.11-2.09-.09-3.12v-1.56a5,5,0,0,1,0-.83,1.07,1.07,0,0,1,.63-.73,1.15,1.15,0,0,1,.47-.09h18.4L495,364.3l104.13.07h.59a1,1,0,0,1,.56.25.9.9,0,0,1,.29.54,3.8,3.8,0,0,1,0,.58v6.43a19.26,19.26,0,0,1-1.38,7.49,18.55,18.55,0,0,1-3.51,5.51,17.53,17.53,0,0,1-4.21,3.41,17.3,17.3,0,0,1-6.92,2.39,13.15,13.15,0,0,1-1.87.15Z" style="fill:#263238"></path><rect x="167.92" y="100.18" width="395.65" height="249.79" rx="4.81" style="fill:#fff"></rect><polygon points="323.73 363.95 329.54 373.81 411.33 373.81 416.72 363.95 323.73 363.95" style="fill:#263238"></polygon><circle cx="366.3" cy="91.73" r="3.24" style="fill:#263238"></circle><path d="M167.92,124.65H237.5a0,0,0,0,1,0,0V350a0,0,0,0,1,0,0H173.19a5.27,5.27,0,0,1-5.27-5.27V124.65A0,0,0,0,1,167.92,124.65Z" style="fill:#f5f5f5"></path><path d="M198.46,134.82a4.73,4.73,0,0,1,1.16-.5l.24-1.15,1.94,0,.27,1.14a4.59,4.59,0,0,1,1.18.46l1-.64,1.39,1.34-.6,1a4.51,4.51,0,0,1,.5,1.15l1.15.24,0,1.94-1.14.28a4.67,4.67,0,0,1-.46,1.17l.64,1-1.34,1.4-1-.61a4.73,4.73,0,0,1-1.16.5l-.24,1.15-1.94,0-.28-1.13a4.7,4.7,0,0,1-1.17-.47l-1,.65-1.4-1.35.61-1a4.73,4.73,0,0,1-.5-1.16l-1.15-.24,0-1.94,1.13-.27a4.62,4.62,0,0,1,.47-1.18l-.65-1,1.35-1.39,1,.6Zm1,2.59a2.08,2.08,0,1,0,2.94-.06A2.07,2.07,0,0,0,199.49,137.41Z" style="fill:#e0e0e0"></path><path d="M214.54,189.12H184.2a3.12,3.12,0,0,1-3.11-3.12h0a3.12,3.12,0,0,1,3.11-3.12h30.34a3.12,3.12,0,0,1,3.11,3.12h0A3.12,3.12,0,0,1,214.54,189.12Z" style="fill:#e0e0e0"></path><path d="M214.54,173.24H184.2a3.12,3.12,0,0,1-3.11-3.12h0A3.12,3.12,0,0,1,184.2,167h30.34a3.12,3.12,0,0,1,3.11,3.12h0A3.12,3.12,0,0,1,214.54,173.24Z" style="fill:#e0e0e0"></path><path d="M214.54,158.71H184.2a3.12,3.12,0,0,1-3.11-3.12h0a3.12,3.12,0,0,1,3.11-3.12h30.34a3.12,3.12,0,0,1,3.11,3.12h0A3.12,3.12,0,0,1,214.54,158.71Z" style="fill:#e0e0e0"></path><path d="M296.08,140.52H267.34a3.12,3.12,0,0,1-3.11-3.12h0a3.12,3.12,0,0,1,3.11-3.12h28.74a3.12,3.12,0,0,1,3.11,3.12h0A3.12,3.12,0,0,1,296.08,140.52Z" style="fill:#263238"></path><path d="M296.08,156.84H267.34a3.12,3.12,0,0,1-3.11-3.12h0a3.12,3.12,0,0,1,3.11-3.12h28.74a3.12,3.12,0,0,1,3.11,3.12h0A3.12,3.12,0,0,1,296.08,156.84Z" style="fill:#e0e0e0"></path><path d="M296.08,173.7H267.34a3.12,3.12,0,0,1-3.11-3.12h0a3.11,3.11,0,0,1,3.11-3.11h28.74a3.11,3.11,0,0,1,3.11,3.11h0A3.12,3.12,0,0,1,296.08,173.7Z" style="fill:#0388C9"></path><path d="M283.82,206.3H267.34a3.11,3.11,0,0,1-3.11-3.11h0a3.11,3.11,0,0,1,3.11-3.12h16.48a3.12,3.12,0,0,1,3.12,3.12h0A3.12,3.12,0,0,1,283.82,206.3Z" style="fill:#263238"></path><path d="M283.82,223.2H267.34a3.11,3.11,0,0,1-3.11-3.11h0a3.11,3.11,0,0,1,3.11-3.12h16.48a3.12,3.12,0,0,1,3.12,3.12h0A3.12,3.12,0,0,1,283.82,223.2Z" style="fill:#263238"></path><path d="M332.78,223.2H302.57a3.11,3.11,0,0,1-3.11-3.11h0a3.11,3.11,0,0,1,3.11-3.12h30.21a3.11,3.11,0,0,1,3.12,3.12h0A3.11,3.11,0,0,1,332.78,223.2Z" style="fill:#e0e0e0"></path><path d="M315.7,238.23H285.49a3.12,3.12,0,0,1-3.12-3.12h0a3.12,3.12,0,0,1,3.12-3.11H315.7a3.11,3.11,0,0,1,3.11,3.11h0A3.11,3.11,0,0,1,315.7,238.23Z" style="fill:#0388C9"></path><rect x="299.51" y="249.14" width="25.01" height="6.23" rx="3.11" style="fill:#0388C9"></rect><path d="M321.4,289H302.63a3.12,3.12,0,0,1-3.12-3.12h0a3.12,3.12,0,0,1,3.12-3.12H321.4a3.12,3.12,0,0,1,3.12,3.12h0A3.12,3.12,0,0,1,321.4,289Z" style="fill:#0388C9"></path><path d="M321.4,324.45H302.63a3.12,3.12,0,0,1-3.12-3.12h0a3.12,3.12,0,0,1,3.12-3.11H321.4a3.12,3.12,0,0,1,3.12,3.11h0A3.12,3.12,0,0,1,321.4,324.45Z" style="fill:#0388C9"></path><path d="M367.55,324.45H334.64a3.12,3.12,0,0,1-3.12-3.12h0a3.12,3.12,0,0,1,3.12-3.11h32.91a3.11,3.11,0,0,1,3.11,3.11h0A3.11,3.11,0,0,1,367.55,324.45Z" style="fill:#455a64"></path><path d="M390.58,324.45h-4.74a3.12,3.12,0,0,1-3.12-3.12h0a3.12,3.12,0,0,1,3.12-3.11h4.74a3.12,3.12,0,0,1,3.12,3.11h0A3.12,3.12,0,0,1,390.58,324.45Z" style="fill:#e0e0e0"></path><path d="M365.57,289H337.76a3.12,3.12,0,0,1-3.11-3.12h0a3.12,3.12,0,0,1,3.11-3.12h27.81a3.12,3.12,0,0,1,3.12,3.12h0A3.12,3.12,0,0,1,365.57,289Z" style="fill:#e0e0e0"></path><path d="M426.56,304.54h-88.8a3.11,3.11,0,0,1-3.11-3.11h0a3.12,3.12,0,0,1,3.11-3.12h88.8a3.12,3.12,0,0,1,3.12,3.12h0A3.12,3.12,0,0,1,426.56,304.54Z" style="fill:#e0e0e0"></path><path d="M436.82,289h-56.7a3.12,3.12,0,0,1-3.11-3.12h0a3.12,3.12,0,0,1,3.11-3.12h56.7a3.12,3.12,0,0,1,3.11,3.12h0A3.12,3.12,0,0,1,436.82,289Z" style="fill:#455a64"></path><rect x="332.68" y="249.14" width="29.72" height="6.23" rx="3.11" style="fill:#455a64"></rect><rect x="370.66" y="249.14" width="12.07" height="6.23" rx="3.11" style="fill:#e0e0e0"></rect><rect x="391.92" y="249.14" width="35.6" height="6.23" rx="3.11" style="fill:#e0e0e0"></rect><path d="M336.16,238.23h-6.73a3.12,3.12,0,0,1-3.12-3.12h0a3.12,3.12,0,0,1,3.12-3.11h6.73a3.12,3.12,0,0,1,3.12,3.11h0A3.12,3.12,0,0,1,336.16,238.23Z" style="fill:#263238"></path><path d="M393.19,238.23H350.33a3.12,3.12,0,0,1-3.12-3.12h0a3.12,3.12,0,0,1,3.12-3.11h42.86a3.12,3.12,0,0,1,3.12,3.11h0A3.12,3.12,0,0,1,393.19,238.23Z" style="fill:#e0e0e0"></path><path d="M342.11,140.52H313.37a3.12,3.12,0,0,1-3.11-3.12h0a3.12,3.12,0,0,1,3.11-3.12h28.74a3.12,3.12,0,0,1,3.11,3.12h0A3.12,3.12,0,0,1,342.11,140.52Z" style="fill:#455a64"></path><path d="M379.13,156.84H313.37a3.12,3.12,0,0,1-3.11-3.12h0a3.12,3.12,0,0,1,3.11-3.12h65.76a3.12,3.12,0,0,1,3.11,3.12h0A3.12,3.12,0,0,1,379.13,156.84Z" style="fill:#263238"></path><path d="M449.92,173.7H313.37a3.12,3.12,0,0,1-3.11-3.12h0a3.11,3.11,0,0,1,3.11-3.11H449.92a3.11,3.11,0,0,1,3.11,3.11h0A3.12,3.12,0,0,1,449.92,173.7Z" style="fill:#e0e0e0"></path><path d="M377.76,185.58H313.37a3.12,3.12,0,0,1-3.11-3.12h0a3.12,3.12,0,0,1,3.11-3.12h64.39a3.12,3.12,0,0,1,3.11,3.12h0A3.12,3.12,0,0,1,377.76,185.58Z" style="fill:#e0e0e0"></path><path d="M364.59,206.3H300.2a3.11,3.11,0,0,1-3.11-3.11h0a3.11,3.11,0,0,1,3.11-3.12h64.39a3.11,3.11,0,0,1,3.11,3.12h0A3.11,3.11,0,0,1,364.59,206.3Z" style="fill:#455a64"></path><path d="M400.63,206.3H379.05a3.12,3.12,0,0,1-3.12-3.11h0a3.12,3.12,0,0,1,3.12-3.12h21.58a3.12,3.12,0,0,1,3.12,3.12h0A3.12,3.12,0,0,1,400.63,206.3Z" style="fill:#0388C9"></path><path d="M455.8,206.2H415a3.12,3.12,0,0,1-3.12-3.12h0A3.12,3.12,0,0,1,415,200H455.8a3.12,3.12,0,0,1,3.12,3.11h0A3.12,3.12,0,0,1,455.8,206.2Z" style="fill:#263238"></path><path d="M511.28,206.2H470.51a3.11,3.11,0,0,1-3.11-3.12h0a3.11,3.11,0,0,1,3.11-3.11h40.77a3.12,3.12,0,0,1,3.12,3.11h0A3.12,3.12,0,0,1,511.28,206.2Z" style="fill:#e0e0e0"></path><path d="M201.4,205.93H184.2a3.12,3.12,0,0,1-3.11-3.12h0a3.12,3.12,0,0,1,3.11-3.12h17.2a3.12,3.12,0,0,1,3.12,3.12h0A3.12,3.12,0,0,1,201.4,205.93Z" style="fill:#e0e0e0"></path><path d="M196.25,256.36H184.2a3.11,3.11,0,0,1-3.11-3.12h0a3.11,3.11,0,0,1,3.11-3.11h12.05a3.12,3.12,0,0,1,3.12,3.11h0A3.12,3.12,0,0,1,196.25,256.36Z" style="fill:#e0e0e0"></path><path d="M217.65,222.74H184.2a3.12,3.12,0,0,1-3.11-3.12h0a3.12,3.12,0,0,1,3.11-3.12h33.45a3.12,3.12,0,0,1,3.12,3.12h0A3.12,3.12,0,0,1,217.65,222.74Z" style="fill:#e0e0e0"></path><path d="M211.78,239.55H184.2a3.12,3.12,0,0,1-3.11-3.12h0a3.11,3.11,0,0,1,3.11-3.11h27.58a3.11,3.11,0,0,1,3.12,3.11h0A3.12,3.12,0,0,1,211.78,239.55Z" style="fill:#e0e0e0"></path><path d="M253.26,137.4a3.17,3.17,0,1,1-3.17-3.16A3.17,3.17,0,0,1,253.26,137.4Z" style="fill:#455a64"></path><path d="M253.26,153.67a3.17,3.17,0,1,1-3.17-3.17A3.17,3.17,0,0,1,253.26,153.67Z" style="fill:#455a64"></path><path d="M253.26,170.58a3.17,3.17,0,1,1-3.17-3.16A3.17,3.17,0,0,1,253.26,170.58Z" style="fill:#455a64"></path><path d="M253.26,187.49a3.17,3.17,0,1,1-3.17-3.16A3.17,3.17,0,0,1,253.26,187.49Z" style="fill:#455a64"></path><path d="M253.26,204.41a3.17,3.17,0,1,1-3.17-3.17A3.16,3.16,0,0,1,253.26,204.41Z" style="fill:#455a64"></path><path d="M253.26,221.32a3.17,3.17,0,1,1-3.17-3.17A3.17,3.17,0,0,1,253.26,221.32Z" style="fill:#455a64"></path><path d="M253.26,238.23a3.17,3.17,0,1,1-3.17-3.17A3.17,3.17,0,0,1,253.26,238.23Z" style="fill:#455a64"></path><path d="M253.26,255.14a3.17,3.17,0,1,1-3.17-3.16A3.17,3.17,0,0,1,253.26,255.14Z" style="fill:#455a64"></path><path d="M253.26,272.06a3.17,3.17,0,1,1-3.17-3.17A3.17,3.17,0,0,1,253.26,272.06Z" style="fill:#455a64"></path><path d="M253.26,289a3.17,3.17,0,1,1-3.17-3.17A3.16,3.16,0,0,1,253.26,289Z" style="fill:#455a64"></path><path d="M253.26,305.88a3.17,3.17,0,1,1-3.17-3.17A3.17,3.17,0,0,1,253.26,305.88Z" style="fill:#455a64"></path><path d="M253.26,322.79a3.17,3.17,0,1,1-3.17-3.17A3.17,3.17,0,0,1,253.26,322.79Z" style="fill:#455a64"></path><path d="M173.24,99.94H558.41a5.34,5.34,0,0,1,5.34,5.34v19.36a0,0,0,0,1,0,0H167.68a0,0,0,0,1,0,0V105.5A5.56,5.56,0,0,1,173.24,99.94Z" style="fill:#ebebeb"></path><path d="M558.76,350a6.43,6.43,0,0,0,.82-.08,4.93,4.93,0,0,0,2.22-1,4.77,4.77,0,0,0,1.72-3.53v-5.64c0-8.55,0-21.15,0-37.37,0-32.46,0-79.42-.07-137.44q0-21.76,0-45.54V105.83a12.09,12.09,0,0,0,0-1.49,4.63,4.63,0,0,0-1.28-2.58,4.56,4.56,0,0,0-2.57-1.32,9.33,9.33,0,0,0-1.51-.07H531.29l-108.93,0-249.6,0a4.63,4.63,0,0,0-3.48,1.58,4.48,4.48,0,0,0-.94,1.71,6.54,6.54,0,0,0-.18,2V163q0,32.34,0,63.69v61.46q0,15.06,0,29.8v25.52a8.82,8.82,0,0,0,.35,3.47,4.58,4.58,0,0,0,4,2.81c.58,0,1.19,0,1.78,0h48.89l52.88,0,94.91,0,137.43.08,37.37.05,9.72,0,3.31,0-3.31,0-9.72,0-37.37.05-137.43.07-94.91,0H174.25c-.6,0-1.18,0-1.8,0a5,5,0,0,1-1.81-.44,5.06,5.06,0,0,1-2.55-2.64,5,5,0,0,1-.39-1.83V317.94q0-14.73,0-29.8V226.68q0-31.32,0-63.69V105.7a6.74,6.74,0,0,1,.21-2.12,4.72,4.72,0,0,1,1-1.89,5.1,5.1,0,0,1,3.84-1.75l249.6,0,108.93,0H558a10.3,10.3,0,0,1,1.56.07,5,5,0,0,1,4.17,4.22,10.16,10.16,0,0,1,0,1.55v13.51q0,23.74,0,45.54c0,58-.06,105-.08,137.44,0,16.22,0,28.82,0,37.37,0,2.13,0,4,0,5.64a4.78,4.78,0,0,1-4,4.58,3.46,3.46,0,0,1-.62.06Z" style="fill:#263238"></path><circle cx="182.84" cy="112.71" r="2.97" style="fill:#fff"></circle><circle cx="191.22" cy="112.71" r="2.97" style="fill:#fff"></circle><circle cx="199.59" cy="112.71" r="2.97" style="fill:#fff"></circle></g><g id="freepik--speech-bubble--inject-48"><path d="M241,162.88l-8.77,1.57a26.71,26.71,0,1,1,4.94-8.17h0Z" style="fill:#fafafa"></path><path d="M241,162.88s-.07-.14-.23-.42l-.71-1.27c-.65-1.13-1.6-2.8-2.82-4.95a.07.07,0,0,0-.09,0l0,0h0l.11.07a26.77,26.77,0,0,0,1.59-12.91,28.21,28.21,0,0,0-.84-4.06c-.21-.69-.48-1.37-.72-2.08a15.74,15.74,0,0,0-.9-2.08,26.36,26.36,0,0,0-5.74-7.88,26.87,26.87,0,0,0-20.71-7.19,27.31,27.31,0,0,0-11.73,4,23.63,23.63,0,0,0-2.63,1.86,13.73,13.73,0,0,0-1.22,1.07c-.39.37-.82.71-1.19,1.12a26.91,26.91,0,0,0-2.12,2.52c-.33.44-.66.88-1,1.34l-.85,1.43a26.81,26.81,0,0,0-1.34,24,26.72,26.72,0,0,0,25.27,16,29.49,29.49,0,0,0,4.39-.48,34.79,34.79,0,0,0,4-1.11,26.52,26.52,0,0,0,10.8-7.39l0,0,6.55-1.2,1.66-.32.55-.11-.58.1-1.69.28-6.51,1.12,0,0a26.54,26.54,0,0,1-10.78,7.28,36.43,36.43,0,0,1-3.94,1.09,28.85,28.85,0,0,1-4.35.45,26.5,26.5,0,0,1-25-15.9,26.43,26.43,0,0,1,1.33-23.74l.84-1.41c.31-.45.65-.89,1-1.33a24.91,24.91,0,0,1,2.09-2.48c.36-.41.79-.74,1.17-1.12a14.91,14.91,0,0,1,1.21-1,25.53,25.53,0,0,1,2.6-1.84,27.23,27.23,0,0,1,11.59-3.94,26.79,26.79,0,0,1,11.42,1.52,26.37,26.37,0,0,1,14.79,13.35,15.55,15.55,0,0,1,.89,2.07c.24.69.52,1.37.72,2.05a26.48,26.48,0,0,1-.65,16.86.06.06,0,0,0,0,.08.06.06,0,0,0,.07,0h-.1l2.87,4.88c.33.55.58,1,.75,1.27Z" style="fill:#263238"></path><path d="M207.09,145.07l-6.56,2.55,6.56,2.54v2.62L197.72,149v-2.73l9.37-3.79Z" style="fill:#0388C9"></path><path d="M214.13,137.31h2.74l-6.5,19.75h-2.73Z" style="fill:#0388C9"></path><path d="M226.59,146.26V149l-9.37,3.79v-2.62l6.55-2.54-6.55-2.55v-2.6Z" style="fill:#0388C9"></path></g><g id="freepik--file-2--inject-48"><path d="M495.67,113.24H447.86a6,6,0,0,1-6-6V41.08a6,6,0,0,1,6-6h30.32l23.47,24.19v48A6,6,0,0,1,495.67,113.24Z" style="fill:#455a64"></path><g style="opacity:0.2"><path d="M441.87,89.53h59.77a0,0,0,0,1,0,0v17.8a5.91,5.91,0,0,1-5.91,5.91H447.79a5.91,5.91,0,0,1-5.91-5.91V89.53A0,0,0,0,1,441.87,89.53Z"></path></g><g style="opacity:0.2"><path d="M478.18,35.1V53.72a5.57,5.57,0,0,0,5.56,5.57h17.91Z" style="fill:#fff"></path></g><g style="opacity:0.2"><path d="M478.42,55.36s-.23,4.51,4.91,6a5.61,5.61,0,0,0,.59.13c2.34.42,17.73,3.16,17.73,2.8v-5H483.74S479.27,59.14,478.42,55.36Z"></path></g><path d="M466.42,70l-7.17,2.63,7.17,2.61v2.69L456.17,74v-2.8l10.25-3.9Z" style="fill:#fafafa"></path><path d="M474.13,62h3L470,82.28h-3Z" style="fill:#fafafa"></path><path d="M487.77,71.18V74l-10.26,3.9V75.19l7.18-2.61L477.51,70V67.28Z" style="fill:#fafafa"></path><path d="M464,98.35v8h-1.86v-3.29h-3.65v3.29h-1.86v-8h1.86v3.17h3.65V98.35Z" style="fill:#fafafa"></path><path d="M467.55,99.87H465V98.35h7v1.52h-2.57v6.51h-1.86Z" style="fill:#fafafa"></path><path d="M480.29,106.38v-4.82l-2.37,4h-.84l-2.35-3.87v4.71H473v-8h1.53l3,5,3-5H482l0,8Z" style="fill:#fafafa"></path><path d="M483.94,98.35h1.85v6.52h4v1.51h-5.88Z" style="fill:#fafafa"></path></g><g id="freepik--file-1--inject-48"><path d="M102.34,179.39H58.55a5.48,5.48,0,0,1-5.48-5.48V113.3a5.48,5.48,0,0,1,5.48-5.48H86.32L107.82,130v43.93A5.48,5.48,0,0,1,102.34,179.39Z" style="fill:#0388C9"></path><g style="opacity:0.2"><path d="M54.31,157.68h52.28a1.24,1.24,0,0,1,1.24,1.24v14a6.48,6.48,0,0,1-6.48,6.48H59.55a6.48,6.48,0,0,1-6.48-6.48v-14A1.24,1.24,0,0,1,54.31,157.68Z"></path></g><g style="opacity:0.2"><path d="M86.32,107.82v17.06a5.1,5.1,0,0,0,5.1,5.09h16.4Z" style="fill:#fff"></path></g><g style="opacity:0.2"><path d="M86.55,126.37a5.66,5.66,0,0,0,4.49,5.5l.54.12c2.14.39,16.24,2.89,16.24,2.57V130H91.42S87.32,129.84,86.55,126.37Z"></path></g><path d="M68.74,167.14a4.69,4.69,0,0,1,8.13-2.9l-1.27,1.17a2.72,2.72,0,0,0-2.14-1,2.73,2.73,0,0,0,0,5.45,2.69,2.69,0,0,0,2.14-1L76.87,170a4.68,4.68,0,0,1-8.13-2.88Z" style="fill:#fafafa"></path><path d="M77.45,170.56l.67-1.49a5,5,0,0,0,2.81.89c1.17,0,1.64-.39,1.64-.91,0-1.6-4.95-.5-4.95-3.66,0-1.45,1.17-2.66,3.59-2.66a5.68,5.68,0,0,1,3,.76l-.6,1.5a4.72,4.72,0,0,0-2.36-.67c-1.17,0-1.62.43-1.62,1,0,1.57,5,.49,5,3.61,0,1.43-1.18,2.64-3.61,2.64A6.1,6.1,0,0,1,77.45,170.56Z" style="fill:#fafafa"></path><path d="M85.21,170.56l.67-1.49a4.92,4.92,0,0,0,2.81.89c1.16,0,1.64-.39,1.64-.91,0-1.6-5-.5-5-3.66,0-1.45,1.17-2.66,3.59-2.66a5.68,5.68,0,0,1,3,.76l-.61,1.5a4.69,4.69,0,0,0-2.36-.67c-1.16,0-1.61.43-1.61,1,0,1.57,5,.49,5,3.61,0,1.43-1.18,2.64-3.62,2.64A6.07,6.07,0,0,1,85.21,170.56Z" style="fill:#fafafa"></path><path d="M71.52,139.58c.9.27,1.32.84,1.32,2.19v3.13a1.29,1.29,0,0,0,1.42,1.45h.36v2.38H73.48c-2.44,0-3.7-1.25-3.7-3.5v-3.54a.8.8,0,0,0-.86-.92h-.64v-2.38h.64a.8.8,0,0,0,.86-.92v-3.55c0-2.24,1.26-3.5,3.7-3.5h1.14v2.39h-.36a1.29,1.29,0,0,0-1.42,1.45v3.13C72.84,138.74,72.42,139.3,71.52,139.58Z" style="fill:#fafafa"></path><path d="M92.62,138.39v2.38H92a.8.8,0,0,0-.86.92v3.54c0,2.25-1.25,3.5-3.7,3.5H86.28v-2.38h.35a1.29,1.29,0,0,0,1.43-1.45v-3.13c0-1.35.41-1.92,1.31-2.19-.9-.28-1.31-.84-1.31-2.19v-3.13a1.29,1.29,0,0,0-1.43-1.45h-.35v-2.39h1.13c2.45,0,3.7,1.26,3.7,3.5v3.55a.8.8,0,0,0,.86.92Z" style="fill:#fafafa"></path></g><g id="freepik--character-3--inject-48"><path d="M476.11,411.68l10.69,26.1-32.41,13.46c-1.09-3.17,13.09-16.35,13.09-16.35L460,418.44Z" style="fill:#455a64"></path><path d="M476.92,429.32a1.43,1.43,0,0,1,1.54,1.13,1.37,1.37,0,0,1-1.11,1.54,1.51,1.51,0,0,1-1.62-1.21,1.42,1.42,0,0,1,1.33-1.47" style="fill:#fff"></path><path d="M486.82,437.83l-1.13-2.8L455,449.17s-1.18,1.23-.59,2.17Z" style="fill:#263238"></path><path d="M466.89,434.94c.07.16.89-.1,1.88.09s1.68.67,1.8.55-.5-.94-1.7-1.14S466.79,434.81,466.89,434.94Z" style="fill:#263238"></path><path d="M464.07,437.76c0,.17.83.15,1.64.6s1.27,1.09,1.42,1-.11-1-1.14-1.54S464,437.61,464.07,437.76Z" style="fill:#263238"></path><path d="M463.83,442.63c.16,0,.05-.91-.71-1.61s-1.65-.73-1.67-.57.64.43,1.26,1S463.67,442.68,463.83,442.63Z" style="fill:#263238"></path><path d="M465.59,431c.12.12.76-.4,1.68-.71S469,430,469,429.8s-.88-.45-2-.07S465.46,430.91,465.59,431Z" style="fill:#263238"></path><path d="M461.65,428.15l-26.74-62.63s.73-10.61,2.74-13.93,61.59-21.92,61.59-21.92,15.15-3.39,25.16.41,18.59,17.08,15.83,23.46l-.09.2a19.54,19.54,0,0,1-18.28,11.52l-21.34-.4-35.27,9.55,17.61,45.37S462.38,428.32,461.65,428.15Z" style="fill:#263238"></path><path d="M455.43,389.09l-1.76,28.14-35-2c.39-3.34,18.9-9,18.9-9l.39-18.08Z" style="fill:#455a64"></path><path d="M448.46,405.31a1.45,1.45,0,0,1,.9,1.69,1.39,1.39,0,0,1-1.67.91,1.52,1.52,0,0,1-.94-1.8,1.43,1.43,0,0,1,1.84-.74" style="fill:#fff"></path><path d="M453.67,417.29l.2-3-33.76-.65s-1.6.6-1.48,1.7Z" style="fill:#263238"></path><path d="M437,406c0,.17.84.3,1.65.89s1.22,1.35,1.38,1.29,0-1.06-1-1.77S437,405.84,437,406Z" style="fill:#263238"></path><path d="M433.22,407.31c0,.16.68.49,1.22,1.25s.66,1.53.83,1.53.34-1-.35-1.88S433.24,407.14,433.22,407.31Z" style="fill:#263238"></path><path d="M430.88,411.58c.16.05.44-.79.06-1.75s-1.16-1.39-1.25-1.25.39.67.7,1.47S430.72,411.56,430.88,411.58Z" style="fill:#263238"></path><path d="M437.53,401.89c.07.16.86,0,1.83.09s1.7.47,1.79.33-.59-.8-1.73-.93S437.46,401.75,437.53,401.89Z" style="fill:#263238"></path><path d="M448.15,322.93s-10-1-11.33,9.91-3.22,61.74-3.22,61.74L457,396.92,461.53,345l37.71-15.32S454.88,321.64,448.15,322.93Z" style="fill:#263238"></path><path d="M489.8,308.89s-6.37,17-5.24,18.92,16.68,10,16.68,10l39,15.71a33,33,0,0,0,4.3-16.19c.16-9.84-13.2-27.78-13.2-27.78Z" style="fill:#263238"></path><path d="M501.11,328.83l-.18.09-.57.25-2.18.93L490,333.52l-28.35,11.66.13-.17c-.44,5.13-.92,10.67-1.41,16.4-1.17,13.4-2.26,25.75-3.11,35.52l0,.18-.17,0L440,395.31l-4.71-.52-1.23-.14-.41-.07H434l1.23.1,4.72.42,17.09,1.64-.19.15c.83-9.77,1.88-22.13,3-35.53.5-5.73,1-11.27,1.43-16.4v-.13l.12,0,28.41-11.51,8.26-3.31,2.22-.87.57-.21C501,328.84,501.11,328.82,501.11,328.83Z" style="fill:#455a64"></path><path d="M532.29,331.05a7.14,7.14,0,0,1-1.1-.32l-2.94-1a63.62,63.62,0,0,0-9.84-2.66,29,29,0,0,0-10.13,0,40.4,40.4,0,0,0-4.07,1.11,5,5,0,0,1,1-.5,17.84,17.84,0,0,1,3-.91,27.09,27.09,0,0,1,10.26-.1,55.92,55.92,0,0,1,9.88,2.8c1.23.46,2.21.86,2.89,1.14A5.44,5.44,0,0,1,532.29,331.05Z" style="fill:#455a64"></path><path d="M526.89,321.94a30,30,0,0,0-3.43-.07c-1.06.05-2.32.2-3.72.34s-2.94.3-4.53.58a21,21,0,0,0-7.74,2.72,24.25,24.25,0,0,0-2.7,2.11,2.78,2.78,0,0,1,.58-.73,12.35,12.35,0,0,1,1.95-1.64,19.84,19.84,0,0,1,7.83-2.89c1.62-.28,3.17-.43,4.57-.56s2.67-.22,3.75-.24a14.39,14.39,0,0,1,2.54.15A3.26,3.26,0,0,1,526.89,321.94Z" style="fill:#455a64"></path><path d="M452.41,304.47,471.8,292l5.12-31.52L492.47,267s-5.36,33.42-7.66,36.63-28.53,11.25-28.53,11.25Z" style="fill:#ffbf9d"></path><path d="M459.75,313.64s-7.09,2.55-8.78,3a40.88,40.88,0,0,1-6.8.26s-7.51,3.36-8,3-1.15-.71-.75-1.18,6-3.89,6-3.89l-4.13.88s-5.51,3.05-6,3-1.28-.68-1.08-1.37l.21-.7a1.4,1.4,0,0,1,.14-1.81l.51-.36-.28-.48a2.16,2.16,0,0,1,.42-2.26c1-1.11,2.95-3.53,2.95-3.53l7.29-2.95,15.06-1" style="fill:#ffbf9d"></path><path d="M458,311.1a9.49,9.49,0,0,1-.7,1,5.38,5.38,0,0,1-2.77,1.56,11.32,11.32,0,0,1-4.78-.22,16.54,16.54,0,0,0-6-.55c-.55.09-1.06.3-1.51.32a.81.81,0,0,1-.87-.64c0-.34.46-.56.89-.77l1.26-.65,4.34-2.26,2.92-1.56a5,5,0,0,0,1-.63,7.29,7.29,0,0,0-1.12.47l-3,1.42-4.39,2.16-1.27.64a6.45,6.45,0,0,0-.67.36,1,1,0,0,0-.47.82,1.25,1.25,0,0,0,1.34,1.11,12.77,12.77,0,0,0,1.57-.32,16.7,16.7,0,0,1,5.87.51,11.2,11.2,0,0,0,4.93.12,5.26,5.26,0,0,0,2.82-1.77,4,4,0,0,0,.48-.8A1.14,1.14,0,0,0,458,311.1Z" style="fill:#ff9a6c"></path><path d="M443.16,309.17a63.13,63.13,0,0,1-6.41,1.21c-.44.05-.88.08-1.3.11h-.11l0,.08a16.13,16.13,0,0,1-3.88,3.48,3.65,3.65,0,0,0,1.39-.62,10.08,10.08,0,0,0,2.84-2.57l-.16.09c.43,0,.87,0,1.32-.1a22.4,22.4,0,0,0,4.58-.94A6.32,6.32,0,0,0,443.16,309.17Z" style="fill:#ff9a6c"></path><path d="M436.79,313.32c-.08-.12-1.41.88-3.23,1.74s-3.41,1.28-3.38,1.42a7.75,7.75,0,0,0,3.58-1A7.94,7.94,0,0,0,436.79,313.32Z" style="fill:#ff9a6c"></path><path d="M537.84,252.58s-5.22-13.44-13.43-14.32l-27.22,1.62-10.92,3.68s-6,9.35-4.78,25.69c.47,6.11,3.09,23,3.44,26.67.33,3.43.69,12.9,4.87,13l41.53.68s9.42-2.44,9.92-8.07S537.84,252.58,537.84,252.58Z" style="fill:#0388C9"></path><path d="M517.39,283.28a3.5,3.5,0,0,1-.71.58,13,13,0,0,1-2.17,1.22,12.77,12.77,0,0,1-3.56,1,12.17,12.17,0,0,1-4.53-.27,15,15,0,0,1-7-4.2,17.68,17.68,0,0,1-1.59-1.91,3.83,3.83,0,0,1-.48-.78c.07-.05.8,1,2.29,2.47a15.58,15.58,0,0,0,6.87,4,12.72,12.72,0,0,0,7.86-.6C516.31,284,517.34,283.21,517.39,283.28Z" style="fill:#263238"></path><g style="opacity:0.30000000000000004"><path d="M498.05,279.89a12.13,12.13,0,0,0,4.14,8.23A10,10,0,0,0,511,290.2a8.62,8.62,0,0,0,6.18-6.5,25.24,25.24,0,0,1-6.67,2.2,13,13,0,0,1-12.69-6.25l.33.37"></path></g><path d="M545.61,271.18l-21.09,9.47s-8.22-19-8.91-21.6-2.93-6.72-.48-12.06,8.44-8.24,12.36-6.79C536.66,243.59,545.61,271.18,545.61,271.18Z" style="fill:#0388C9"></path><path d="M526.6,279.35c3.85,6.58,6.55,10.37,6.55,10.37l-35.89,21.06,4,9.69,43.44-17.06a10,10,0,0,0,6.06-6.57,8.12,8.12,0,0,0,0-4.43l-7-20.4Z" style="fill:#ffbf9d"></path><path d="M541.75,293.17a30.2,30.2,0,0,0-4.22-2.28,31.37,31.37,0,0,0-4.65-1.18,9.66,9.66,0,0,1,4.81.77A9.53,9.53,0,0,1,541.75,293.17Z" style="fill:#ff9a6c"></path><path d="M545.61,271.18a2.29,2.29,0,0,0-.42.14l-1.17.47-4.26,1.81-14,6.11-1.71.75.27.1c-2.34-5-4.38-9.5-5.83-12.74-.69-1.59-1.26-2.88-1.68-3.83l-.46-1a1.61,1.61,0,0,0-.18-.35,2,2,0,0,0,.11.38c.09.24.21.61.39,1.06.35.93.88,2.25,1.57,3.89,1.39,3.27,3.39,7.77,5.71,12.8l.09.18.18-.08,1.7-.76,14-6.21,4.21-1.92,1.13-.55A1.92,1.92,0,0,0,545.61,271.18Z" style="fill:#263238"></path><path d="M469.58,316.92l8.94-4.09,17.32-1.09,1.42-1,4,9.69s-4.57,2.09-6.95,2.25L479.76,322l-7.61.67Z" style="fill:#ffbf9d"></path><path d="M420.28,282l49.86,1.22c1.61,0,3.15.83,3.36,2.44l4.86,36.43,25.68.42a1.5,1.5,0,1,1,0,3l-25.24-.41L474,325l-52-.85-5-38.45A3.28,3.28,0,0,1,420.28,282Z" style="fill:#e0e0e0"></path><path d="M420.28,282a2.63,2.63,0,0,0-.79.06,3.34,3.34,0,0,0-2.57,2.82,9.22,9.22,0,0,0,.15,2.05c.19,1.47.4,3.17.64,5.08,1,7.63,2.37,18.64,4.1,32.17l0,.13H422l79.58,1.34,2.15,0a2,2,0,0,0,1.13-.2,1.66,1.66,0,0,0,.78-.89,1.69,1.69,0,0,0-.74-2.08,2.06,2.06,0,0,0-1.12-.23l-1.05,0-8.34-.13-16-.26.19.17c-1.75-13-3.38-25.22-4.84-36.14a2.86,2.86,0,0,0-.89-1.91,3.68,3.68,0,0,0-1.9-.87,17.28,17.28,0,0,0-2-.11l-2,0-7.51-.18-13.34-.3-19-.41L422,282h-1.76l.44,0L422,282l5.08.16,19,.52,13.34.35,7.51.19,2,.05a18.1,18.1,0,0,1,2,.11,3.41,3.41,0,0,1,1.72.79,2.48,2.48,0,0,1,.79,1.72c1.44,10.92,3.06,23.09,4.79,36.14l0,.17h.17l16,.27,8.33.14h1.06a1.69,1.69,0,0,1,.92.18,1.3,1.3,0,0,1,0,2.27,1.77,1.77,0,0,1-.94.15l-2.14,0L422,324l.15.13c-1.78-13.52-3.22-24.52-4.23-32.16-.25-1.9-.48-3.59-.68-5.07a9.83,9.83,0,0,1-.17-2,3.29,3.29,0,0,1,.61-1.54,3.21,3.21,0,0,1,1.86-1.24C420,282,420.28,282,420.28,282Z" style="fill:#263238"></path><path d="M450.11,303.05a3.12,3.12,0,1,1-3.07-3.17A3.13,3.13,0,0,1,450.11,303.05Z" style="fill:#fff"></path><path d="M476.3,324.67c-.08,0-1.51-9.27-3.21-20.72s-3-20.76-2.95-20.77,1.5,9.27,3.2,20.73S476.37,324.66,476.3,324.67Z" style="fill:#263238"></path><path d="M483.54,273.19l-11.35-4.8s5.17-19,10.07-22.45,7.43-3.54,7.43-3.54Z" style="fill:#0388C9"></path><path d="M501.74,185.15c4.7-.77,8.82,1,12.77,3.72a24.19,24.19,0,0,1,9.43,25.89,18.68,18.68,0,0,1-9.22,11.37c-6.13,3.08-13.94,2-19.39-2.19a23.65,23.65,0,0,1-8.78-17.86,22.63,22.63,0,0,1,3.64-13.44,17.28,17.28,0,0,1,11.55-7.49" style="fill:#263238"></path><path d="M515,201.18c-.68-1.8-.4-3.8-.66-5.71-.59-4.19-3.95-7.57-7.85-9.22-3.63-1.54-8.07-1.23-12.46.17a16.71,16.71,0,0,0-7.85,5.07,13.16,13.16,0,0,0-2.47,11.82l21.47-3a23.76,23.76,0,0,0,6.48,4.3,4.48,4.48,0,0,0,2.24.37,2,2,0,0,0,1.68-1.37A4.23,4.23,0,0,0,515,201.18Z" style="fill:#263238"></path><path d="M515.15,240.37l.4-40.54a3.5,3.5,0,0,0-3.26-3.44l-18.71-4c-6-.42-9.67,7-9.84,13-.18,6.64-.15,14.76.81,19.68,1.92,9.88,9.58,10.88,9.58,10.88s.27,6.31.43,9.93a7.14,7.14,0,0,0,7.68,2.86C507.6,247.63,515.15,240.37,515.15,240.37Z" style="fill:#ffbf9d"></path><path d="M486.46,214.18a1.27,1.27,0,0,0,1.27,1.24,1.22,1.22,0,0,0,1.28-1.19,1.28,1.28,0,0,0-1.28-1.25A1.23,1.23,0,0,0,486.46,214.18Z" style="fill:#263238"></path><path d="M485.65,209.51c.16.16,1.1-.59,2.48-.63s2.4.61,2.54.43-.1-.37-.55-.67a3.48,3.48,0,0,0-4,.15C485.7,209.13,485.57,209.44,485.65,209.51Z" style="fill:#263238"></path><path d="M498.63,214.18a1.27,1.27,0,0,0,1.27,1.24,1.21,1.21,0,0,0,1.27-1.19A1.28,1.28,0,0,0,499.9,213,1.23,1.23,0,0,0,498.63,214.18Z" style="fill:#263238"></path><path d="M498.82,208.58c.16.16,1.11-.58,2.48-.63s2.4.61,2.54.44-.1-.37-.55-.68a3.46,3.46,0,0,0-2-.55,3.33,3.33,0,0,0-2,.71C498.87,208.21,498.74,208.51,498.82,208.58Z" style="fill:#263238"></path><path d="M494.52,219.64a10,10,0,0,0-2.24-.32c-.36,0-.69-.08-.76-.32a1.78,1.78,0,0,1,.2-1.05c.3-.85.61-1.76.94-2.7a46.72,46.72,0,0,0,2.09-7.06c-.16-.05-1.34,3-2.65,6.88-.31,1-.61,1.85-.9,2.71a2,2,0,0,0-.13,1.39.87.87,0,0,0,.59.49,2.25,2.25,0,0,0,.6.06A8.5,8.5,0,0,0,494.52,219.64Z" style="fill:#263238"></path><path d="M494.13,235.91a25.29,25.29,0,0,0,13.19-4s-3.11,7-13.09,6.41Z" style="fill:#ff9a6c"></path><path d="M498.21,203.07c.15.37,1.51.15,3.12.29s2.94.53,3.14.19c.09-.17-.15-.51-.69-.85a5.05,5.05,0,0,0-2.34-.73,5.12,5.12,0,0,0-2.43.37C498.43,202.6,498.14,202.9,498.21,203.07Z" style="fill:#263238"></path><path d="M485.84,203.5c.25.3,1.19-.06,2.32-.11s2.11.13,2.32-.2c.09-.16-.07-.47-.5-.75a3.24,3.24,0,0,0-1.91-.44,3.2,3.2,0,0,0-1.83.69C485.85,203,485.73,203.35,485.84,203.5Z" style="fill:#263238"></path><path d="M518.48,198.3c-1.92-5.71-10.37-13.52-16.37-13l-9.51,5.91a9.24,9.24,0,0,0,6.4,7c1.7.49,3.75.6,4.78,2.05s.49,3.65,1.47,5.17c1.36,2.11,5,2,6,4.24.45,1,.24,2.21.71,3.2.63,1.32,4,3,5.41,2.49s1.35-2.83,1.79-4.08a6.65,6.65,0,0,0,.13-4.42C518.67,204,519.4,201,518.48,198.3Z" style="fill:#263238"></path><path d="M513.31,216.58c0-.74.77-2.51,1.49-2.65,2-.37,5.47-.34,5.68,4.62.28,6.77-6.59,5.66-6.61,5.46S513.39,219.14,513.31,216.58Z" style="fill:#ffbf9d"></path><path d="M515.84,221.36s.12.08.32.16a1.19,1.19,0,0,0,.89,0,2.92,2.92,0,0,0,1.24-2.67,3.92,3.92,0,0,0-.4-1.68,1.36,1.36,0,0,0-.93-.87.6.6,0,0,0-.68.35c-.08.2,0,.33-.07.34s-.15-.1-.11-.39a.81.81,0,0,1,.25-.43.89.89,0,0,1,.65-.2,1.66,1.66,0,0,1,1.28,1,4,4,0,0,1,.48,1.87,3.06,3.06,0,0,1-1.6,3,1.3,1.3,0,0,1-1.09-.14C515.86,221.52,515.82,221.37,515.84,221.36Z" style="fill:#ff9a6c"></path><path d="M494.58,189.17c-.64,2.75-4.85,6.27-6.69,8.41-3.53,4.08-4.23,5.44-4.23,14.6-1.65-3.17-2.91-6.27-2.76-9.84a14.79,14.79,0,0,1,4-9.7,11.49,11.49,0,0,1,9.72-3.47" style="fill:#263238"></path><path d="M521.93,198.23a5.66,5.66,0,0,1-1.15.28,13.34,13.34,0,0,1-1.37.23c-.54.07-1.15.18-1.83.21a33,33,0,0,1-4.81,0,37.17,37.17,0,0,1-5.81-.91,36.28,36.28,0,0,1-5.57-1.91,32.56,32.56,0,0,1-4.24-2.27c-.59-.35-1.08-.72-1.52-1a13.17,13.17,0,0,1-1.11-.84,7.78,7.78,0,0,1-.89-.79,7.33,7.33,0,0,1,1,.66c.3.23.68.5,1.14.79s.95.65,1.54,1a35.92,35.92,0,0,0,4.24,2.17,39.91,39.91,0,0,0,5.51,1.86,39.13,39.13,0,0,0,5.75.93,34.93,34.93,0,0,0,4.76,0c.68,0,1.28-.09,1.82-.14s1-.11,1.38-.16A6.29,6.29,0,0,1,521.93,198.23Z" style="fill:#455a64"></path><path d="M522.62,203.09a3,3,0,0,1-.78.19,19.94,19.94,0,0,1-2.19.27,27.11,27.11,0,0,1-14.12-2.83,16.83,16.83,0,0,1-1.91-1.09,2.78,2.78,0,0,1-.65-.47c0-.06,1,.53,2.69,1.31a31.34,31.34,0,0,0,6.82,2.22,30.7,30.7,0,0,0,7.15.57C521.48,203.2,522.61,203,522.62,203.09Z" style="fill:#455a64"></path><path d="M511,177.23a7.89,7.89,0,0,1,5.09-3.51,13,13,0,0,1,6.28.31,13.61,13.61,0,0,1,7.07,4.28,8.56,8.56,0,0,1,1.71,7.87,6.28,6.28,0,0,1-6.42,4.34,18.35,18.35,0,0,1,5.08,5.69c.23.4.43.95.11,1.29s-1,.11-1.44-.18L523.54,194a9.64,9.64,0,0,1,3.18,4.81c.19.67.16,1.61-.5,1.81a1.53,1.53,0,0,1-1.21-.4l-3.51-2.53-7.4-9.3a11,11,0,0,1-3.64-5.07A7.64,7.64,0,0,1,511,177.23Z" style="fill:#263238"></path><path d="M507.32,185.23c0,.08,1.09.35,2.78,1.08a22.66,22.66,0,0,1,10.55,9.34c.93,1.59,1.34,2.66,1.42,2.63a2.69,2.69,0,0,0-.23-.78,14.75,14.75,0,0,0-.9-2A20.63,20.63,0,0,0,510.23,186a16.06,16.06,0,0,0-2.11-.66C507.61,185.24,507.33,185.19,507.32,185.23Z" style="fill:#0388C9"></path><path d="M481.09,256a5.17,5.17,0,0,1,.17,1.25c.06.93.13,2.07.22,3.41.17,2.88.35,6.85.68,11.24s.79,8.33,1.24,11.17c.22,1.42.41,2.57.55,3.36a5.23,5.23,0,0,1,.16,1.25,5.35,5.35,0,0,1-.38-1.2c-.21-.78-.46-1.92-.73-3.34a101.54,101.54,0,0,1-1.42-11.2c-.32-4.4-.45-8.38-.51-11.27,0-1.34,0-2.48,0-3.41A6,6,0,0,1,481.09,256Z" style="fill:#263238"></path><path d="M496,222.77a2.47,2.47,0,0,1,2.32-.63,2.29,2.29,0,0,1,1.44,1,1.42,1.42,0,0,1-.1,1.64,1.65,1.65,0,0,1-1.84.22,5,5,0,0,1-1.61-1.26,1.49,1.49,0,0,1-.34-.45.47.47,0,0,1,.07-.51" style="fill:#ff9a6c"></path><path d="M499.75,220.86c-.22,0-.41,1.44-1.81,2.33s-2.95.52-3,.73.32.33,1,.43a3.71,3.71,0,0,0,2.49-.52,3.26,3.26,0,0,0,1.42-2C500,221.26,499.86,220.87,499.75,220.86Z" style="fill:#263238"></path></g></svg>